STARTFONT 2.1
FONT -Adobe-ITC Souvenir-Demi-I-Normal--11-80-100-100-P-67-ISO8859-1
SIZE 8 100 100
FONTBOUNDINGBOX 14 13 -2 -2

STARTPROPERTIES 30
FOUNDRY "Adobe"
FAMILY_NAME "ITC Souvenir"
WEIGHT_NAME "Demi"
SLANT "I"
SETWIDTH_NAME "Normal"
ADD_STYLE_NAME ""
PIXEL_SIZE 11
POINT_SIZE 80
RESOLUTION_X 100
RESOLUTION_Y 100
SPACING "P"
AVERAGE_WIDTH 67
CHARSET_REGISTRY "ISO8859"
CHARSET_ENCODING "1"
CAP_HEIGHT 8
X_HEIGHT 5
FACE_NAME "ITC Souvenir Demi Italic"
COPYRIGHT "Copyright (c) 1984, 1987 Adobe Systems Incorporated. All Rights Reserved. Copyright (c) 1988, 1991 Digital Equipment Corporation. All Rights Reserved."
NOTICE "ITC Souvenir is a registered trademark of International Typeface Corporation.  "
_DEC_DEVICE_FONTNAMES "PS=Souvenir-DemiItalic"
_DEC_PRODUCTINFO "DECwindows Fonts V2.2, 07-Nov-1991"
RELATIVE_SETWIDTH 50
RELATIVE_WEIGHT 60
CHARSET_COLLECTIONS "ASCII ISO8859-1 ADOBE-STANDARD"
FULL_NAME "ITC Souvenir Demi Italic"
WEIGHT 10
QUAD_WIDTH 7
DEFAULT_CHAR 32
FONT_DESCENT 2
FONT_ASCENT 10
ENDPROPERTIES

CHARS 191

STARTCHAR space
ENCODING 32
SWIDTH 340 0
DWIDTH 3 0
BBX 1 1 0 0
BITMAP
00
ENDCHAR

STARTCHAR exclam
ENCODING 33
SWIDTH 380 0
DWIDTH 4 0
BBX 4 8 0 0
BITMAP
30
30
60
60
60
00
C0
C0
ENDCHAR

STARTCHAR quotedbl
ENCODING 34
SWIDTH 580 0
DWIDTH 5 0
BBX 3 3 1 5
BITMAP
A0
A0
A0
ENDCHAR

STARTCHAR numbersign
ENCODING 35
SWIDTH 660 0
DWIDTH 7 0
BBX 7 8 0 0
BITMAP
14
14
7E
28
28
FC
50
50
ENDCHAR

STARTCHAR dollar
ENCODING 36
SWIDTH 680 0
DWIDTH 7 0
BBX 6 10 0 -1
BITMAP
08
3C
64
60
70
38
18
98
F0
40
ENDCHAR

STARTCHAR percent
ENCODING 37
SWIDTH 900 0
DWIDTH 9 0
BBX 8 8 0 0
BITMAP
64
A4
A8
C8
13
15
25
26
ENDCHAR

STARTCHAR ampersand
ENCODING 38
SWIDTH 880 0
DWIDTH 10 0
BBX 9 8 0 0
BITMAP
1C00
3600
3600
3580
7900
DE00
CC00
7700
ENDCHAR

STARTCHAR quoteright
ENCODING 39
SWIDTH 320 0
DWIDTH 4 0
BBX 2 4 1 4
BITMAP
C0
C0
40
80
ENDCHAR

STARTCHAR parenleft
ENCODING 40
SWIDTH 360 0
DWIDTH 5 0
BBX 4 9 0 -1
BITMAP
30
60
60
C0
C0
C0
C0
C0
60
ENDCHAR

STARTCHAR parenright
ENCODING 41
SWIDTH 360 0
DWIDTH 5 0
BBX 4 9 0 -1
BITMAP
60
30
30
30
30
30
60
60
C0
ENDCHAR

STARTCHAR asterisk
ENCODING 42
SWIDTH 680 0
DWIDTH 6 0
BBX 3 3 1 6
BITMAP
A0
40
A0
ENDCHAR

STARTCHAR plus
ENCODING 43
SWIDTH 660 0
DWIDTH 7 0
BBX 5 5 0 1
BITMAP
20
20
F8
20
20
ENDCHAR

STARTCHAR comma
ENCODING 44
SWIDTH 340 0
DWIDTH 3 0
BBX 2 4 0 -2
BITMAP
C0
C0
40
80
ENDCHAR

STARTCHAR minus
ENCODING 45
SWIDTH 660 0
DWIDTH 7 0
BBX 5 1 0 3
BITMAP
F8
ENDCHAR

STARTCHAR period
ENCODING 46
SWIDTH 340 0
DWIDTH 3 0
BBX 2 2 0 0
BITMAP
C0
C0
ENDCHAR

STARTCHAR slash
ENCODING 47
SWIDTH 420 0
DWIDTH 5 0
BBX 4 8 0 0
BITMAP
10
10
20
20
40
40
80
80
ENDCHAR

STARTCHAR zero
ENCODING 48
SWIDTH 680 0
DWIDTH 7 0
BBX 6 8 0 0
BITMAP
18
2C
6C
CC
CC
D8
D0
60
ENDCHAR

STARTCHAR one
ENCODING 49
SWIDTH 680 0
DWIDTH 7 0
BBX 6 8 -1 0
BITMAP
0C
3C
18
18
18
30
30
F8
ENDCHAR

STARTCHAR two
ENCODING 50
SWIDTH 680 0
DWIDTH 7 0
BBX 6 8 0 0
BITMAP
38
4C
0C
18
30
60
C8
F8
ENDCHAR

STARTCHAR three
ENCODING 51
SWIDTH 680 0
DWIDTH 7 0
BBX 6 8 0 0
BITMAP
38
4C
0C
30
18
18
98
F0
ENDCHAR

STARTCHAR four
ENCODING 52
SWIDTH 680 0
DWIDTH 7 0
BBX 6 8 0 0
BITMAP
0C
1C
2C
58
98
FC
30
78
ENDCHAR

STARTCHAR five
ENCODING 53
SWIDTH 680 0
DWIDTH 7 0
BBX 6 8 0 0
BITMAP
3C
38
40
78
0C
0C
98
F0
ENDCHAR

STARTCHAR six
ENCODING 54
SWIDTH 680 0
DWIDTH 7 0
BBX 6 8 0 0
BITMAP
0C
30
60
78
CC
CC
C8
70
ENDCHAR

STARTCHAR seven
ENCODING 55
SWIDTH 680 0
DWIDTH 7 0
BBX 6 8 0 0
BITMAP
7C
FC
88
18
30
30
60
60
ENDCHAR

STARTCHAR eight
ENCODING 56
SWIDTH 680 0
DWIDTH 7 0
BBX 6 8 0 0
BITMAP
38
44
64
78
78
98
88
70
ENDCHAR

STARTCHAR nine
ENCODING 57
SWIDTH 680 0
DWIDTH 7 0
BBX 6 8 0 0
BITMAP
38
4C
CC
CC
78
18
30
C0
ENDCHAR

STARTCHAR colon
ENCODING 58
SWIDTH 320 0
DWIDTH 3 0
BBX 3 5 0 0
BITMAP
60
60
00
C0
C0
ENDCHAR

STARTCHAR semicolon
ENCODING 59
SWIDTH 340 0
DWIDTH 3 0
BBX 3 7 0 -2
BITMAP
60
60
00
C0
C0
40
80
ENDCHAR

STARTCHAR less
ENCODING 60
SWIDTH 660 0
DWIDTH 7 0
BBX 6 5 0 1
BITMAP
0C
30
C0
30
08
ENDCHAR

STARTCHAR equal
ENCODING 61
SWIDTH 660 0
DWIDTH 7 0
BBX 6 3 0 2
BITMAP
FC
00
FC
ENDCHAR

STARTCHAR greater
ENCODING 62
SWIDTH 660 0
DWIDTH 7 0
BBX 6 5 0 1
BITMAP
40
30
0C
30
C0
ENDCHAR

STARTCHAR question
ENCODING 63
SWIDTH 520 0
DWIDTH 6 0
BBX 5 8 0 0
BITMAP
70
D8
18
30
60
00
C0
C0
ENDCHAR

STARTCHAR at
ENCODING 64
SWIDTH 860 0
DWIDTH 9 0
BBX 8 8 0 0
BITMAP
3E
41
5D
B5
AE
B6
41
3E
ENDCHAR

STARTCHAR A
ENCODING 65
SWIDTH 760 0
DWIDTH 8 0
BBX 8 8 -1 0
BITMAP
0C
1C
14
26
3E
46
46
EF
ENDCHAR

STARTCHAR B
ENCODING 66
SWIDTH 780 0
DWIDTH 8 0
BBX 7 8 0 0
BITMAP
7C
36
36
3C
76
66
66
F8
ENDCHAR

STARTCHAR C
ENCODING 67
SWIDTH 780 0
DWIDTH 7 0
BBX 7 8 0 0
BITMAP
1C
66
60
C0
C0
C0
C4
78
ENDCHAR

STARTCHAR D
ENCODING 68
SWIDTH 860 0
DWIDTH 9 0
BBX 8 8 0 0
BITMAP
7E
33
33
33
63
66
66
F8
ENDCHAR

STARTCHAR E
ENCODING 69
SWIDTH 700 0
DWIDTH 8 0
BBX 7 8 0 0
BITMAP
7E
32
30
3C
60
60
64
FC
ENDCHAR

STARTCHAR F
ENCODING 70
SWIDTH 640 0
DWIDTH 7 0
BBX 7 8 0 0
BITMAP
7E
32
30
3C
60
60
60
F0
ENDCHAR

STARTCHAR G
ENCODING 71
SWIDTH 820 0
DWIDTH 8 0
BBX 7 8 0 0
BITMAP
1C
66
60
C0
CE
CC
CC
78
ENDCHAR

STARTCHAR H
ENCODING 72
SWIDTH 880 0
DWIDTH 10 0
BBX 9 8 0 0
BITMAP
7380
3300
3300
3F00
6600
6600
6600
E700
ENDCHAR

STARTCHAR I
ENCODING 73
SWIDTH 400 0
DWIDTH 4 0
BBX 5 8 -1 0
BITMAP
78
30
30
30
60
60
60
F0
ENDCHAR

STARTCHAR J
ENCODING 74
SWIDTH 600 0
DWIDTH 5 0
BBX 7 8 -2 0
BITMAP
1E
0C
0C
0C
18
18
D8
70
ENDCHAR

STARTCHAR K
ENCODING 75
SWIDTH 780 0
DWIDTH 10 0
BBX 9 8 0 0
BITMAP
7B80
3300
3600
3C00
7600
6600
6300
F780
ENDCHAR

STARTCHAR L
ENCODING 76
SWIDTH 660 0
DWIDTH 7 0
BBX 6 8 0 0
BITMAP
78
30
30
30
60
60
64
FC
ENDCHAR

STARTCHAR M
ENCODING 77
SWIDTH 960 0
DWIDTH 12 0
BBX 11 8 0 0
BITMAP
71E0
31C0
3AC0
3AC0
2D80
4D80
4180
E3C0
ENDCHAR

STARTCHAR N
ENCODING 78
SWIDTH 800 0
DWIDTH 9 0
BBX 8 8 0 0
BITMAP
77
32
3A
3A
5C
4C
4C
EC
ENDCHAR

STARTCHAR O
ENCODING 79
SWIDTH 860 0
DWIDTH 8 0
BBX 7 8 0 0
BITMAP
1C
66
66
C6
C6
CC
CC
70
ENDCHAR

STARTCHAR P
ENCODING 80
SWIDTH 720 0
DWIDTH 7 0
BBX 7 8 0 0
BITMAP
7C
36
36
34
78
60
60
F0
ENDCHAR

STARTCHAR Q
ENCODING 81
SWIDTH 880 0
DWIDTH 8 0
BBX 7 9 0 -1
BITMAP
1C
66
66
C6
C6
CC
CC
70
1C
ENDCHAR

STARTCHAR R
ENCODING 82
SWIDTH 780 0
DWIDTH 8 0
BBX 7 8 0 0
BITMAP
7C
36
36
36
78
6C
6C
EE
ENDCHAR

STARTCHAR S
ENCODING 83
SWIDTH 680 0
DWIDTH 7 0
BBX 6 8 0 0
BITMAP
3C
64
60
70
38
18
98
F0
ENDCHAR

STARTCHAR T
ENCODING 84
SWIDTH 660 0
DWIDTH 6 0
BBX 6 8 0 0
BITMAP
FC
B4
30
30
60
60
60
F0
ENDCHAR

STARTCHAR U
ENCODING 85
SWIDTH 800 0
DWIDTH 8 0
BBX 8 8 0 0
BITMAP
F7
62
62
62
C4
C4
C4
78
ENDCHAR

STARTCHAR V
ENCODING 86
SWIDTH 720 0
DWIDTH 8 0
BBX 8 8 0 0
BITMAP
F7
62
62
64
64
38
38
30
ENDCHAR

STARTCHAR W
ENCODING 87
SWIDTH 1020 0
DWIDTH 11 0
BBX 11 8 0 0
BITMAP
F6E0
6640
6640
6E80
6A80
3B80
3300
3300
ENDCHAR

STARTCHAR X
ENCODING 88
SWIDTH 740 0
DWIDTH 9 0
BBX 10 8 -1 0
BITMAP
3DC0
1980
1B00
0E00
1C00
3600
6600
F700
ENDCHAR

STARTCHAR Y
ENCODING 89
SWIDTH 740 0
DWIDTH 8 0
BBX 8 8 0 0
BITMAP
F7
62
34
38
18
30
30
78
ENDCHAR

STARTCHAR Z
ENCODING 90
SWIDTH 620 0
DWIDTH 8 0
BBX 7 8 0 0
BITMAP
7E
46
0C
18
30
60
C4
FC
ENDCHAR

STARTCHAR bracketleft
ENCODING 91
SWIDTH 340 0
DWIDTH 5 0
BBX 4 9 0 -1
BITMAP
70
60
60
60
60
C0
C0
C0
E0
ENDCHAR

STARTCHAR backslash
ENCODING 92
SWIDTH 660 0
DWIDTH 7 0
BBX 4 8 1 0
BITMAP
80
80
40
40
20
20
10
10
ENDCHAR

STARTCHAR bracketright
ENCODING 93
SWIDTH 340 0
DWIDTH 5 0
BBX 4 9 0 -1
BITMAP
70
30
30
30
60
60
60
60
E0
ENDCHAR

STARTCHAR asciicircum
ENCODING 94
SWIDTH 660 0
DWIDTH 7 0
BBX 5 6 0 2
BITMAP
20
20
50
50
88
88
ENDCHAR

STARTCHAR underscore
ENCODING 95
SWIDTH 500 0
DWIDTH 5 0
BBX 5 1 0 -2
BITMAP
F8
ENDCHAR

STARTCHAR quoteleft
ENCODING 96
SWIDTH 320 0
DWIDTH 3 0
BBX 2 4 0 4
BITMAP
40
80
C0
C0
ENDCHAR

STARTCHAR a
ENCODING 97
SWIDTH 640 0
DWIDTH 7 0
BBX 6 5 0 0
BITMAP
3C
4C
D8
D8
6C
ENDCHAR

STARTCHAR b
ENCODING 98
SWIDTH 640 0
DWIDTH 7 0
BBX 6 8 0 0
BITMAP
30
30
60
78
6C
CC
C8
F0
ENDCHAR

STARTCHAR c
ENCODING 99
SWIDTH 540 0
DWIDTH 6 0
BBX 6 5 0 0
BITMAP
38
4C
C0
C8
70
ENDCHAR

STARTCHAR d
ENCODING 100
SWIDTH 680 0
DWIDTH 8 0
BBX 8 8 0 0
BITMAP
03
03
06
3E
46
CC
DC
6C
ENDCHAR

STARTCHAR e
ENCODING 101
SWIDTH 580 0
DWIDTH 6 0
BBX 6 5 0 0
BITMAP
38
4C
F8
C0
78
ENDCHAR

STARTCHAR f
ENCODING 102
SWIDTH 420 0
DWIDTH 4 0
BBX 8 10 -2 -2
BITMAP
07
0C
0C
3E
18
18
30
30
30
E0
ENDCHAR

STARTCHAR g
ENCODING 103
SWIDTH 600 0
DWIDTH 7 0
BBX 8 7 -1 -2
BITMAP
1F
66
66
38
0C
CC
78
ENDCHAR

STARTCHAR h
ENCODING 104
SWIDTH 680 0
DWIDTH 7 0
BBX 6 8 0 0
BITMAP
30
30
60
78
6C
CC
D8
D8
ENDCHAR

STARTCHAR i
ENCODING 105
SWIDTH 340 0
DWIDTH 4 0
BBX 4 8 0 0
BITMAP
30
30
00
60
60
C0
C0
C0
ENDCHAR

STARTCHAR j
ENCODING 106
SWIDTH 340 0
DWIDTH 4 0
BBX 6 10 -2 -2
BITMAP
0C
0C
00
18
18
18
30
30
B0
E0
ENDCHAR

STARTCHAR k
ENCODING 107
SWIDTH 600 0
DWIDTH 6 0
BBX 6 8 0 0
BITMAP
30
30
60
6C
70
F0
D8
D8
ENDCHAR

STARTCHAR l
ENCODING 108
SWIDTH 360 0
DWIDTH 4 0
BBX 4 8 0 0
BITMAP
30
30
60
60
60
C0
C0
C0
ENDCHAR

STARTCHAR m
ENCODING 109
SWIDTH 980 0
DWIDTH 10 0
BBX 9 5 0 0
BITMAP
DB00
6D80
6D80
DB00
DB00
ENDCHAR

STARTCHAR n
ENCODING 110
SWIDTH 680 0
DWIDTH 7 0
BBX 6 5 0 0
BITMAP
D8
6C
6C
D8
D8
ENDCHAR

STARTCHAR o
ENCODING 111
SWIDTH 640 0
DWIDTH 7 0
BBX 6 5 0 0
BITMAP
38
4C
CC
C8
70
ENDCHAR

STARTCHAR p
ENCODING 112
SWIDTH 660 0
DWIDTH 7 0
BBX 7 7 -1 -2
BITMAP
6C
36
36
64
78
60
F0
ENDCHAR

STARTCHAR q
ENCODING 113
SWIDTH 640 0
DWIDTH 7 0
BBX 6 7 0 -2
BITMAP
3C
4C
CC
D8
78
18
38
ENDCHAR

STARTCHAR r
ENCODING 114
SWIDTH 460 0
DWIDTH 5 0
BBX 5 5 0 0
BITMAP
68
78
60
C0
C0
ENDCHAR

STARTCHAR s
ENCODING 115
SWIDTH 520 0
DWIDTH 6 0
BBX 5 5 0 0
BITMAP
38
60
70
30
E0
ENDCHAR

STARTCHAR t
ENCODING 116
SWIDTH 420 0
DWIDTH 4 0
BBX 4 7 0 0
BITMAP
20
60
F0
60
C0
C0
60
ENDCHAR

STARTCHAR u
ENCODING 117
SWIDTH 680 0
DWIDTH 7 0
BBX 6 5 0 0
BITMAP
6C
6C
D8
D8
6C
ENDCHAR

STARTCHAR v
ENCODING 118
SWIDTH 580 0
DWIDTH 6 0
BBX 5 5 0 0
BITMAP
E8
68
C8
D0
60
ENDCHAR

STARTCHAR w
ENCODING 119
SWIDTH 840 0
DWIDTH 9 0
BBX 8 5 0 0
BITMAP
ED
6D
D9
DA
6C
ENDCHAR

STARTCHAR x
ENCODING 120
SWIDTH 580 0
DWIDTH 7 0
BBX 8 5 -1 0
BITMAP
33
7C
18
3E
CC
ENDCHAR

STARTCHAR y
ENCODING 121
SWIDTH 560 0
DWIDTH 6 0
BBX 5 7 0 -2
BITMAP
D8
C8
C8
D0
70
20
C0
ENDCHAR

STARTCHAR z
ENCODING 122
SWIDTH 500 0
DWIDTH 5 0
BBX 6 5 -1 0
BITMAP
7C
58
30
68
F8
ENDCHAR

STARTCHAR braceleft
ENCODING 123
SWIDTH 340 0
DWIDTH 6 0
BBX 5 9 0 -1
BITMAP
18
30
30
20
C0
60
60
60
30
ENDCHAR

STARTCHAR bar
ENCODING 124
SWIDTH 660 0
DWIDTH 6 0
BBX 1 8 2 0
BITMAP
80
80
80
80
80
80
80
80
ENDCHAR

STARTCHAR braceright
ENCODING 125
SWIDTH 340 0
DWIDTH 6 0
BBX 5 9 0 -1
BITMAP
60
30
30
30
18
20
60
60
C0
ENDCHAR

STARTCHAR asciitilde
ENCODING 126
SWIDTH 660 0
DWIDTH 7 0
BBX 7 2 0 3
BITMAP
76
DC
ENDCHAR

STARTCHAR space
ENCODING 160
SWIDTH 340 0
DWIDTH 3 0
BBX 1 1 0 0
BITMAP
00
ENDCHAR

STARTCHAR exclamdown
ENCODING 161
SWIDTH 380 0
DWIDTH 5 0
BBX 4 8 0 -2
BITMAP
30
30
00
60
60
60
C0
C0
ENDCHAR

STARTCHAR cent
ENCODING 162
SWIDTH 660 0
DWIDTH 7 0
BBX 6 9 0 -1
BITMAP
10
10
38
4C
C0
C8
70
20
20
ENDCHAR

STARTCHAR sterling
ENCODING 163
SWIDTH 660 0
DWIDTH 7 0
BBX 6 8 0 0
BITMAP
1C
24
60
60
F8
60
44
F8
ENDCHAR

STARTCHAR currency
ENCODING 164
SWIDTH 680 0
DWIDTH 7 0
BBX 7 5 0 2
BITMAP
BA
6C
44
6C
BA
ENDCHAR

STARTCHAR yen
ENCODING 165
SWIDTH 680 0
DWIDTH 7 0
BBX 8 8 0 0
BITMAP
F7
66
6C
FC
30
F8
60
F0
ENDCHAR

STARTCHAR brokenbar
ENCODING 166
SWIDTH 660 0
DWIDTH 6 0
BBX 1 8 2 0
BITMAP
80
80
80
00
00
80
80
80
ENDCHAR

STARTCHAR section
ENCODING 167
SWIDTH 680 0
DWIDTH 7 0
BBX 7 10 -1 -2
BITMAP
1E
22
30
3C
4E
72
3C
0C
88
F0
ENDCHAR

STARTCHAR dieresis
ENCODING 168
SWIDTH 520 0
DWIDTH 5 0
BBX 3 2 1 6
BITMAP
A0
A0
ENDCHAR

STARTCHAR copyright
ENCODING 169
SWIDTH 840 0
DWIDTH 9 0
BBX 8 8 0 0
BITMAP
3C
42
9D
A5
A1
9D
42
3C
ENDCHAR

STARTCHAR ordfeminine
ENCODING 170
SWIDTH 440 0
DWIDTH 6 0
BBX 5 6 0 2
BITMAP
70
90
B0
D8
00
F0
ENDCHAR

STARTCHAR guillemotleft
ENCODING 171
SWIDTH 460 0
DWIDTH 7 0
BBX 6 4 0 1
BITMAP
24
48
90
48
ENDCHAR

STARTCHAR logicalnot
ENCODING 172
SWIDTH 660 0
DWIDTH 7 0
BBX 6 3 0 2
BITMAP
FC
04
04
ENDCHAR

STARTCHAR hyphen
ENCODING 173
SWIDTH 300 0
DWIDTH 4 0
BBX 3 1 0 3
BITMAP
E0
ENDCHAR

STARTCHAR registered
ENCODING 174
SWIDTH 840 0
DWIDTH 9 0
BBX 8 8 0 0
BITMAP
3C
42
BD
A5
B9
A5
42
3C
ENDCHAR

STARTCHAR macron
ENCODING 175
SWIDTH 480 0
DWIDTH 5 0
BBX 4 1 0 6
BITMAP
F0
ENDCHAR

STARTCHAR degree
ENCODING 176
SWIDTH 400 0
DWIDTH 4 0
BBX 3 3 1 5
BITMAP
60
A0
C0
ENDCHAR

STARTCHAR plusminus
ENCODING 177
SWIDTH 660 0
DWIDTH 7 0
BBX 5 5 0 1
BITMAP
20
F8
20
00
F8
ENDCHAR

STARTCHAR twosuperior
ENCODING 178
SWIDTH 408 0
DWIDTH 4 0
BBX 3 4 0 4
BITMAP
60
A0
40
E0
ENDCHAR

STARTCHAR threesuperior
ENCODING 179
SWIDTH 408 0
DWIDTH 4 0
BBX 3 4 0 4
BITMAP
E0
40
20
C0
ENDCHAR

STARTCHAR acute
ENCODING 180
SWIDTH 320 0
DWIDTH 4 0
BBX 3 2 0 6
BITMAP
60
C0
ENDCHAR

STARTCHAR mu
ENCODING 181
SWIDTH 680 0
DWIDTH 7 0
BBX 7 7 -1 -2
BITMAP
36
36
6C
6C
76
C0
C0
ENDCHAR

STARTCHAR paragraph
ENCODING 182
SWIDTH 660 0
DWIDTH 7 0
BBX 7 10 0 -2
BITMAP
7E
D4
94
94
A8
68
28
50
50
50
ENDCHAR

STARTCHAR periodcentered
ENCODING 183
SWIDTH 340 0
DWIDTH 3 0
BBX 2 2 0 3
BITMAP
C0
C0
ENDCHAR

STARTCHAR cedilla
ENCODING 184
SWIDTH 540 0
DWIDTH 6 0
BBX 3 3 0 -2
BITMAP
40
20
C0
ENDCHAR

STARTCHAR onesuperior
ENCODING 185
SWIDTH 408 0
DWIDTH 4 0
BBX 3 4 0 4
BITMAP
20
E0
40
E0
ENDCHAR

STARTCHAR ordmasculine
ENCODING 186
SWIDTH 440 0
DWIDTH 5 0
BBX 4 6 0 2
BITMAP
70
90
90
E0
00
F0
ENDCHAR

STARTCHAR guillemotright
ENCODING 187
SWIDTH 460 0
DWIDTH 7 0
BBX 6 4 0 1
BITMAP
48
24
48
90
ENDCHAR

STARTCHAR onequarter
ENCODING 188
SWIDTH 1020 0
DWIDTH 10 0
BBX 8 8 0 0
BITMAP
22
E4
4C
E8
12
36
2F
44
ENDCHAR

STARTCHAR onehalf
ENCODING 189
SWIDTH 1020 0
DWIDTH 10 0
BBX 8 8 0 0
BITMAP
22
E4
4C
E8
13
35
22
47
ENDCHAR

STARTCHAR threequarters
ENCODING 190
SWIDTH 1020 0
DWIDTH 10 0
BBX 8 8 0 0
BITMAP
E2
44
2C
C8
12
36
2F
44
ENDCHAR

STARTCHAR questiondown
ENCODING 191
SWIDTH 520 0
DWIDTH 6 0
BBX 5 8 0 -2
BITMAP
18
18
00
30
60
C0
D8
70
ENDCHAR

STARTCHAR Agrave
ENCODING 192
SWIDTH 760 0
DWIDTH 8 0
BBX 8 11 -1 0
BITMAP
18
0C
00
0C
1C
14
26
3E
46
46
EF
ENDCHAR

STARTCHAR Aacute
ENCODING 193
SWIDTH 760 0
DWIDTH 8 0
BBX 8 11 -1 0
BITMAP
06
0C
00
0C
1C
14
26
3E
46
46
EF
ENDCHAR

STARTCHAR Acircumflex
ENCODING 194
SWIDTH 760 0
DWIDTH 8 0
BBX 8 11 -1 0
BITMAP
04
0A
00
0C
1C
14
26
3E
46
46
EF
ENDCHAR

STARTCHAR Atilde
ENCODING 195
SWIDTH 760 0
DWIDTH 8 0
BBX 8 11 -1 0
BITMAP
0D
16
00
0C
1C
14
26
3E
46
46
EF
ENDCHAR

STARTCHAR Adieresis
ENCODING 196
SWIDTH 760 0
DWIDTH 8 0
BBX 8 11 -1 0
BITMAP
12
12
00
0C
1C
14
26
3E
46
46
EF
ENDCHAR

STARTCHAR Aring
ENCODING 197
SWIDTH 760 0
DWIDTH 8 0
BBX 8 11 -1 0
BITMAP
04
0A
04
0C
1C
14
26
3E
46
46
EF
ENDCHAR

STARTCHAR AE
ENCODING 198
SWIDTH 1000 0
DWIDTH 11 0
BBX 10 8 0 0
BITMAP
0FC0
1640
1600
2780
2C00
7C00
4C80
CF80
ENDCHAR

STARTCHAR Ccedilla
ENCODING 199
SWIDTH 780 0
DWIDTH 7 0
BBX 7 10 0 -2
BITMAP
1C
66
60
C0
C0
C0
C4
78
20
C0
ENDCHAR

STARTCHAR Egrave
ENCODING 200
SWIDTH 700 0
DWIDTH 8 0
BBX 7 11 0 0
BITMAP
18
0C
00
7E
32
30
3C
60
60
64
FC
ENDCHAR

STARTCHAR Eacute
ENCODING 201
SWIDTH 700 0
DWIDTH 8 0
BBX 7 11 0 0
BITMAP
06
0C
00
7E
32
30
3C
60
60
64
FC
ENDCHAR

STARTCHAR Ecircumflex
ENCODING 202
SWIDTH 700 0
DWIDTH 8 0
BBX 7 11 0 0
BITMAP
08
14
00
7E
32
30
3C
60
60
64
FC
ENDCHAR

STARTCHAR Edieresis
ENCODING 203
SWIDTH 700 0
DWIDTH 8 0
BBX 7 11 0 0
BITMAP
14
14
00
7E
32
30
3C
60
60
64
FC
ENDCHAR

STARTCHAR Igrave
ENCODING 204
SWIDTH 400 0
DWIDTH 4 0
BBX 5 11 -1 0
BITMAP
60
30
00
78
30
30
30
60
60
60
F0
ENDCHAR

STARTCHAR Iacute
ENCODING 205
SWIDTH 400 0
DWIDTH 4 0
BBX 6 11 -1 0
BITMAP
0C
18
00
78
30
30
30
60
60
60
F0
ENDCHAR

STARTCHAR Icircumflex
ENCODING 206
SWIDTH 400 0
DWIDTH 4 0
BBX 5 11 -1 0
BITMAP
10
28
00
78
30
30
30
60
60
60
F0
ENDCHAR

STARTCHAR Idieresis
ENCODING 207
SWIDTH 400 0
DWIDTH 4 0
BBX 5 11 -1 0
BITMAP
28
28
00
78
30
30
30
60
60
60
F0
ENDCHAR

STARTCHAR Eth
ENCODING 208
SWIDTH 860 0
DWIDTH 9 0
BBX 8 8 0 0
BITMAP
7E
33
33
FB
63
66
66
F8
ENDCHAR

STARTCHAR Ntilde
ENCODING 209
SWIDTH 800 0
DWIDTH 9 0
BBX 8 11 0 0
BITMAP
1A
2C
00
77
32
3A
3A
5C
4C
4C
EC
ENDCHAR

STARTCHAR Ograve
ENCODING 210
SWIDTH 860 0
DWIDTH 8 0
BBX 7 11 0 0
BITMAP
30
18
00
1C
66
66
C6
C6
CC
CC
70
ENDCHAR

STARTCHAR Oacute
ENCODING 211
SWIDTH 860 0
DWIDTH 8 0
BBX 8 11 0 0
BITMAP
03
06
00
1C
66
66
C6
C6
CC
CC
70
ENDCHAR

STARTCHAR Ocircumflex
ENCODING 212
SWIDTH 860 0
DWIDTH 8 0
BBX 7 11 0 0
BITMAP
08
14
00
1C
66
66
C6
C6
CC
CC
70
ENDCHAR

STARTCHAR Otilde
ENCODING 213
SWIDTH 860 0
DWIDTH 8 0
BBX 7 11 0 0
BITMAP
1A
2C
00
1C
66
66
C6
C6
CC
CC
70
ENDCHAR

STARTCHAR Odieresis
ENCODING 214
SWIDTH 860 0
DWIDTH 8 0
BBX 7 11 0 0
BITMAP
14
14
00
1C
66
66
C6
C6
CC
CC
70
ENDCHAR

STARTCHAR multiply
ENCODING 215
SWIDTH 660 0
DWIDTH 7 0
BBX 5 5 0 1
BITMAP
88
50
20
50
88
ENDCHAR

STARTCHAR Oslash
ENCODING 216
SWIDTH 860 0
DWIDTH 8 0
BBX 7 10 0 -1
BITMAP
02
1C
6E
4E
D6
D6
E4
EC
70
80
ENDCHAR

STARTCHAR Ugrave
ENCODING 217
SWIDTH 800 0
DWIDTH 8 0
BBX 8 11 0 0
BITMAP
18
0C
00
F7
62
62
62
C4
C4
C4
78
ENDCHAR

STARTCHAR Uacute
ENCODING 218
SWIDTH 800 0
DWIDTH 8 0
BBX 8 11 0 0
BITMAP
06
0C
00
F7
62
62
62
C4
C4
C4
78
ENDCHAR

STARTCHAR Ucircumflex
ENCODING 219
SWIDTH 800 0
DWIDTH 8 0
BBX 8 11 0 0
BITMAP
08
14
00
F7
62
62
62
C4
C4
C4
78
ENDCHAR

STARTCHAR Udieresis
ENCODING 220
SWIDTH 800 0
DWIDTH 8 0
BBX 8 11 0 0
BITMAP
14
14
00
F7
62
62
62
C4
C4
C4
78
ENDCHAR

STARTCHAR Yacute
ENCODING 221
SWIDTH 740 0
DWIDTH 8 0
BBX 8 11 0 0
BITMAP
06
0C
00
F7
62
34
38
18
30
30
78
ENDCHAR

STARTCHAR Thorn
ENCODING 222
SWIDTH 720 0
DWIDTH 7 0
BBX 7 8 0 0
BITMAP
70
3C
36
26
64
78
60
F0
ENDCHAR

STARTCHAR germandbls
ENCODING 223
SWIDTH 640 0
DWIDTH 8 0
BBX 7 8 0 0
BITMAP
1C
26
64
68
6C
C6
C6
DC
ENDCHAR

STARTCHAR agrave
ENCODING 224
SWIDTH 640 0
DWIDTH 7 0
BBX 6 8 0 0
BITMAP
30
18
00
3C
4C
D8
D8
6C
ENDCHAR

STARTCHAR aacute
ENCODING 225
SWIDTH 640 0
DWIDTH 7 0
BBX 6 8 0 0
BITMAP
0C
18
00
3C
4C
D8
D8
6C
ENDCHAR

STARTCHAR acircumflex
ENCODING 226
SWIDTH 640 0
DWIDTH 7 0
BBX 6 8 0 0
BITMAP
10
28
00
3C
4C
D8
D8
6C
ENDCHAR

STARTCHAR atilde
ENCODING 227
SWIDTH 640 0
DWIDTH 7 0
BBX 6 8 0 0
BITMAP
34
58
00
3C
4C
D8
D8
6C
ENDCHAR

STARTCHAR adieresis
ENCODING 228
SWIDTH 640 0
DWIDTH 7 0
BBX 6 8 0 0
BITMAP
28
28
00
3C
4C
D8
D8
6C
ENDCHAR

STARTCHAR aring
ENCODING 229
SWIDTH 640 0
DWIDTH 7 0
BBX 6 9 0 0
BITMAP
10
28
10
00
3C
4C
D8
D8
6C
ENDCHAR

STARTCHAR ae
ENCODING 230
SWIDTH 900 0
DWIDTH 11 0
BBX 10 5 0 0
BITMAP
7B80
0CC0
7F80
CC00
7780
ENDCHAR

STARTCHAR ccedilla
ENCODING 231
SWIDTH 540 0
DWIDTH 6 0
BBX 6 7 0 -2
BITMAP
38
4C
C0
C8
70
20
C0
ENDCHAR

STARTCHAR egrave
ENCODING 232
SWIDTH 580 0
DWIDTH 6 0
BBX 6 8 0 0
BITMAP
30
18
00
38
4C
F8
C0
78
ENDCHAR

STARTCHAR eacute
ENCODING 233
SWIDTH 580 0
DWIDTH 6 0
BBX 6 8 0 0
BITMAP
18
30
00
38
4C
F8
C0
78
ENDCHAR

STARTCHAR ecircumflex
ENCODING 234
SWIDTH 580 0
DWIDTH 6 0
BBX 6 8 0 0
BITMAP
10
28
00
38
4C
F8
C0
78
ENDCHAR

STARTCHAR edieresis
ENCODING 235
SWIDTH 580 0
DWIDTH 6 0
BBX 6 8 0 0
BITMAP
28
28
00
38
4C
F8
C0
78
ENDCHAR

STARTCHAR igrave
ENCODING 236
SWIDTH 340 0
DWIDTH 4 0
BBX 3 8 0 0
BITMAP
C0
60
00
E0
60
C0
C0
E0
ENDCHAR

STARTCHAR iacute
ENCODING 237
SWIDTH 340 0
DWIDTH 4 0
BBX 4 8 0 0
BITMAP
30
60
00
E0
60
C0
C0
E0
ENDCHAR

STARTCHAR icircumflex
ENCODING 238
SWIDTH 340 0
DWIDTH 4 0
BBX 3 8 0 0
BITMAP
40
A0
00
E0
60
C0
C0
E0
ENDCHAR

STARTCHAR idieresis
ENCODING 239
SWIDTH 340 0
DWIDTH 4 0
BBX 3 8 0 0
BITMAP
A0
A0
00
E0
60
C0
C0
E0
ENDCHAR

STARTCHAR eth
ENCODING 240
SWIDTH 640 0
DWIDTH 7 0
BBX 6 8 0 0
BITMAP
D8
70
98
3C
4C
CC
C8
70
ENDCHAR

STARTCHAR ntilde
ENCODING 241
SWIDTH 680 0
DWIDTH 7 0
BBX 6 8 0 0
BITMAP
34
58
00
D8
6C
6C
D8
D8
ENDCHAR

STARTCHAR ograve
ENCODING 242
SWIDTH 640 0
DWIDTH 7 0
BBX 6 8 0 0
BITMAP
30
18
00
38
4C
CC
C8
70
ENDCHAR

STARTCHAR oacute
ENCODING 243
SWIDTH 640 0
DWIDTH 7 0
BBX 6 8 0 0
BITMAP
0C
18
00
38
4C
CC
C8
70
ENDCHAR

STARTCHAR ocircumflex
ENCODING 244
SWIDTH 640 0
DWIDTH 7 0
BBX 6 8 0 0
BITMAP
10
28
00
38
4C
CC
C8
70
ENDCHAR

STARTCHAR otilde
ENCODING 245
SWIDTH 640 0
DWIDTH 7 0
BBX 6 8 0 0
BITMAP
34
58
00
38
4C
CC
C8
70
ENDCHAR

STARTCHAR odieresis
ENCODING 246
SWIDTH 640 0
DWIDTH 7 0
BBX 6 8 0 0
BITMAP
28
28
00
38
4C
CC
C8
70
ENDCHAR

STARTCHAR divide
ENCODING 247
SWIDTH 660 0
DWIDTH 7 0
BBX 5 5 0 1
BITMAP
20
00
F8
00
20
ENDCHAR

STARTCHAR oslash
ENCODING 248
SWIDTH 640 0
DWIDTH 7 0
BBX 8 7 -1 -1
BITMAP
01
1E
26
6E
74
78
80
ENDCHAR

STARTCHAR ugrave
ENCODING 249
SWIDTH 680 0
DWIDTH 7 0
BBX 6 8 0 0
BITMAP
30
18
00
6C
6C
D8
D8
6C
ENDCHAR

STARTCHAR uacute
ENCODING 250
SWIDTH 680 0
DWIDTH 7 0
BBX 6 8 0 0
BITMAP
0C
18
00
6C
6C
D8
D8
6C
ENDCHAR

STARTCHAR ucircumflex
ENCODING 251
SWIDTH 680 0
DWIDTH 7 0
BBX 6 8 0 0
BITMAP
10
28
00
6C
6C
D8
D8
6C
ENDCHAR

STARTCHAR udieresis
ENCODING 252
SWIDTH 680 0
DWIDTH 7 0
BBX 6 8 0 0
BITMAP
28
28
00
6C
6C
D8
D8
6C
ENDCHAR

STARTCHAR yacute
ENCODING 253
SWIDTH 560 0
DWIDTH 6 0
BBX 5 10 0 -2
BITMAP
18
30
00
D8
C8
C8
D0
70
20
C0
ENDCHAR

STARTCHAR thorn
ENCODING 254
SWIDTH 660 0
DWIDTH 7 0
BBX 7 10 -1 -2
BITMAP
18
18
10
3C
36
26
64
78
60
F0
ENDCHAR

STARTCHAR ydieresis
ENCODING 255
SWIDTH 560 0
DWIDTH 6 0
BBX 6 10 -1 -2
BITMAP
28
28
00
EC
64
64
68
38
10
60
ENDCHAR
ENDFONT
